/* XPM */
static char *_576585597485[] = {
/* columns rows colors chars-per-pixel */
"25 19 247 2 ",
"   c black",
".  c #010000",
"X  c #040404",
"o  c gray3",
"O  c #0B0909",
"+  c gray5",
"@  c gray6",
"#  c #180000",
"$  c #131313",
"%  c gray8",
"&  c #141515",
"*  c #1D1D1D",
"=  c #1D1E1E",
"-  c #1E1E1E",
";  c #300100",
":  c #320200",
">  c #350200",
",  c #310400",
"<  c #360400",
"1  c #390501",
"2  c #310D08",
"3  c #2F1F1E",
"4  c #341F1D",
"5  c #2A2828",
"6  c #450000",
"7  c #440100",
"8  c #460200",
"9  c #400502",
"0  c #440400",
"q  c #4D0000",
"w  c #4B0C05",
"e  c #500200",
"r  c #550000",
"t  c #510600",
"y  c #550701",
"u  c #5E0300",
"i  c #5D1918",
"p  c #5A1C18",
"a  c #610300",
"s  c #640300",
"d  c #630501",
"f  c #6B0700",
"g  c #730100",
"h  c #720200",
"j  c #770100",
"k  c #730400",
"l  c #770801",
"z  c #760A02",
"x  c #7A0A02",
"c  c #7D0901",
"v  c #7F0A01",
"b  c #7D0A02",
"n  c #6A1F1B",
"m  c #433D3D",
"M  c #64302B",
"N  c #424444",
"B  c #544040",
"V  c #5E5A5A",
"C  c #71524F",
"Z  c #785C59",
"A  c #636464",
"S  c #6B6969",
"D  c #716B6B",
"F  c #716F6F",
"G  c #717272",
"H  c #7E7979",
"J  c #8D0200",
"K  c #8D0501",
"L  c #830901",
"P  c #800A01",
"I  c #830902",
"U  c #800A02",
"Y  c #840901",
"T  c #860801",
"R  c #870801",
"E  c #860901",
"W  c #920000",
"Q  c #970200",
"!  c #930500",
"~  c #900601",
"^  c #950400",
"/  c #9B0200",
"(  c #9A0400",
")  c #9B0400",
"_  c #9D0400",
"`  c #9E0400",
"'  c #851609",
"]  c #A20000",
"[  c #A50200",
"{  c #A60200",
"}  c #A00400",
"|  c #A30400",
" . c #A80300",
".. c #AB0200",
"X. c #AB0300",
"o. c #AD0200",
"O. c #AB0400",
"+. c #A80600",
"@. c #AD0600",
"#. c #B10100",
"$. c #B20100",
"%. c #B10200",
"&. c #B10300",
"*. c #B30300",
"=. c #B50200",
"-. c #B60300",
";. c #B70300",
":. c #BB0100",
">. c #B90200",
",. c #B80300",
"<. c #B90300",
"1. c #BF0300",
"2. c #BB0700",
"3. c #BC0500",
"4. c #BE0500",
"5. c #B00900",
"6. c #BC0D04",
"7. c #AE1509",
"8. c #AC1808",
"9. c #AD1B0B",
"0. c #852218",
"q. c #912317",
"w. c #C00300",
"e. c #C20300",
"r. c #C50300",
"t. c #C30500",
"y. c #C50500",
"u. c #C80400",
"i. c #CA0500",
"p. c #CA0700",
"a. c #CE0500",
"s. c #CC0600",
"d. c #C30B00",
"f. c #C80900",
"g. c #D00600",
"h. c #D30700",
"j. c #D30800",
"k. c #D10A00",
"l. c #D50800",
"z. c #D60900",
"x. c #D70900",
"c. c #D30F00",
"v. c #D80900",
"b. c #DA0A00",
"n. c #D80E00",
"m. c #DF0C00",
"M. c #DF0D00",
"N. c #DC0F00",
"B. c #DD1000",
"V. c #D81502",
"C. c #E10D00",
"Z. c #E20D00",
"A. c #E30E00",
"S. c #E40E00",
"D. c #E50E00",
"F. c #E70F00",
"G. c #E31102",
"H. c #E71300",
"J. c #E41500",
"K. c #E91000",
"L. c #E91100",
"P. c #EF1200",
"I. c #EE1802",
"U. c #EB1A06",
"Y. c #E81D06",
"T. c #F01300",
"R. c #F31400",
"E. c #F31500",
"W. c #F21602",
"Q. c #F41500",
"!. c #F41601",
"~. c #F71802",
"^. c #F31E07",
"/. c #F41D06",
"(. c #FA1C04",
"). c #FB1D05",
"_. c #FB1F07",
"`. c #CF2311",
"'. c #FB2009",
"]. c #FC2109",
"[. c #E82712",
"{. c #F62610",
"}. c #FC2911",
"|. c #FD2A12",
" X c #FD2B14",
".X c #F92F19",
"XX c #FD2E18",
"oX c #FA301A",
"OX c #FC311A",
"+X c #F9321D",
"@X c #CE3127",
"#X c #CF3E2E",
"$X c #E23522",
"%X c #EA3723",
"&X c #EF3622",
"*X c #E63A27",
"=X c #EE3D2F",
"-X c #FC3923",
";X c #FE3B25",
":X c #F03B28",
">X c #F53C2A",
",X c #9D4338",
"<X c #BA4139",
"1X c #D1493A",
"2X c #E6402F",
"3X c #E34C3C",
"4X c #FC4936",
"5X c #FD4A36",
"6X c #A9635B",
"7X c #A4716E",
"8X c #CA4F41",
"9X c #E95D4D",
"0X c #F1594D",
"qX c #CB655B",
"wX c #E46658",
"eX c #FD6150",
"rX c #FC6554",
"tX c #EC7366",
"yX c #EE7C6F",
"uX c #F27365",
"iX c #F97265",
"pX c #FC7465",
"aX c #FC7B6D",
"sX c #ED897D",
"dX c #FC8578",
"fX c gray61",
"gX c #D59F99",
"hX c #F68D82",
"jX c #EC9389",
"kX c #FB9388",
"lX c #FC968A",
"zX c #FAA096",
"xX c #FCA298",
"cX c #E6A9A2",
"vX c #FEAAA1",
"bX c #FDB0A7",
"nX c #FDB6AD",
"mX c #FDB9B1",
"MX c #FDC0B9",
"NX c #FFC2BB",
"BX c #FEC6BF",
"VX c #FFD8D4",
"CX c #FDDCD8",
"ZX c #FDDFDC",
"AX c #FDECEA",
"SX c #FEF4F3",
"DX c None",
/* pixels */
"DXDXDXDXDXDXP T T T P P x DXDXDXDXDXDXDXDXDXDXDXDX",
"DXDXDXDX0 !  .%.;.;.*.O.) 8   DXDXDXDXDXDXDXDXDXDX",
"DXDXDX; q <.g.g.j.@.k _ i./ r a DXDXDXDXDXDXDXDXDX",
"DXDX) { 3.v.Z.K.K.f   , f.v.i.<._ DXDXDXDXDXDXDXDX",
"DXK %.y.k.N.H.I.^.9.2 w V.P.Z.g.w.{ DXDXDXDXDXDXDX",
"l Q =.f.n.J.Y.[.*X3X8X1X=X{.R.D.l.w.| DXDXDXDXDXDX",
"T %.a.Z.T.).|.$X,X6XsXhXyX9X%XY.N.t.W DXDXDXDXDXDX",
"T =.g.Z.R.]..X0.5 V gXNXMXzXuX2X7.9 i B DXDXDXDXDX",
"P  .t.Z.R.].+Xq.4 Z cXVXSXCXvXtXM & F S fXDXDXDXDX",
"v u 8 5.T.(. X&X#XwXlXmXZXAXBXjXC N A $ % DXDXDXDX",
"z ;   k D.R.].XX;X5XrXdXxXnXvXlXqX7XD O = DXDXDXDX",
"DXy > J v.D.!._.|.OX-X5XeXpXaXiX0X<X3 = = X DXDXDX",
"DXDXv | r.j.D.T.~.^.8.' `.+X>X=X@Xp O @ O DXDXDXDX",
"DXDXDXP } 3.g.v.D.c.<   t B.G.6.n H G + DXDXDXDXDX",
"DXDXDXDXU ! o.w.a.i.s # e 2.+.8 m DXDXDXDXDXDXDXDX",
"DXDXDXDXDX1 d ^ o.<.%.j g DXDXDXDXDXDXDXDXDXDXDXDX",
"DXDXDXDXDXDXDXDXDXDXDXDXDXDXDXDXDXDXDXDXDXDXDXDXDX",
"DXDXDXDXDXDXDXDXDXDXDXDXDXDXDXDXDXDXDXDXDXDXDXDXDX",
"DXDXDXDXDXDXDXDXDXDXDXDXDXDXDXDXDXDXDXDXDXDXDXDXDX"
};
