/* XPM */
static char *_576585525623[] = {
/* columns rows colors chars-per-pixel */
"50 38 198 2 ",
"   c #010000",
".  c #0C0000",
"X  c #0B0C0B",
"o  c #150100",
"O  c #1A0201",
"+  c #170A08",
"@  c gray8",
"#  c #1B1B1B",
"$  c #1E1110",
"%  c #220200",
"&  c #2C0100",
"*  c #250C09",
"=  c #330200",
"-  c #3B0100",
";  c #3C0801",
":  c #251C1C",
">  c #361714",
",  c #242424",
"<  c #29292A",
"1  c #33302F",
"2  c #343535",
"3  c #3D3E3E",
"4  c #430300",
"5  c #4C0501",
"6  c #460905",
"7  c #530400",
"8  c #5B0200",
"9  c #540902",
"0  c #4A1310",
"q  c #541812",
"w  c #660300",
"e  c #6C0300",
"r  c #6C0A02",
"t  c #620802",
"y  c #730200",
"u  c #7A0400",
"i  c #740A03",
"p  c #7B0C03",
"a  c #771F15",
"s  c #4C3938",
"d  c #6E342D",
"f  c #672928",
"g  c #4F403F",
"h  c #53413F",
"j  c #4C4C4B",
"k  c #424343",
"l  c #554E4E",
"z  c #555555",
"x  c #694C49",
"c  c #725B59",
"v  c #656464",
"b  c #6D6A6A",
"n  c #7A7A7A",
"m  c #840300",
"M  c #8B0701",
"N  c #840902",
"B  c #890801",
"V  c #940401",
"C  c #9D0400",
"Z  c #9A0D00",
"A  c #921103",
"S  c #831206",
"D  c #A40200",
"F  c #AC0200",
"G  c #A30C00",
"H  c #B30200",
"J  c #BC0200",
"K  c #BC0900",
"L  c #B10C00",
"P  c #AE1403",
"I  c #B71004",
"U  c #B5271B",
"Y  c #902722",
"T  c #B53F31",
"R  c #AF332A",
"E  c #C40200",
"W  c #CC0500",
"Q  c #C30B00",
"!  c #CC0B00",
"~  c #D10700",
"^  c #D50900",
"/  c #DC0B00",
"(  c #CD1000",
")  c #D31501",
"_  c #DD1200",
"`  c #D71906",
"'  c #E40E00",
"]  c #E80F00",
"[  c #E51202",
"{  c #EC1200",
"}  c #EC1A04",
"|  c #F41500",
" . c #F91700",
".. c #FB1B03",
"X. c #F11D06",
"o. c #CB210E",
"O. c #D8220F",
"+. c #C72414",
"@. c #D72513",
"#. c #EB230E",
"$. c #F6230C",
"%. c #FC240C",
"&. c #FC2007",
"*. c #FC2B14",
"=. c #FD2F18",
"-. c #F62A16",
";. c #F5311C",
":. c #FD331D",
">. c #C53929",
",. c #DA3826",
"<. c #E52D21",
"1. c #ED3925",
"2. c #ED3725",
"3. c #FB3620",
"4. c #FC3A25",
"5. c #FC3E29",
"6. c #E23C32",
"7. c #B2463E",
"8. c #D64939",
"9. c #E3412F",
"0. c #FC432E",
"q. c #F4402C",
"w. c #E34331",
"e. c #EB493B",
"r. c #FB4D3B",
"t. c #F74935",
"y. c #FB503E",
"u. c #955853",
"i. c #8F6A65",
"p. c #A8706A",
"a. c #D85348",
"s. c #CF5F52",
"d. c #DE5F51",
"f. c #CD5547",
"g. c #E94D42",
"h. c #F44F40",
"j. c #E3594A",
"k. c #ED5A4B",
"l. c #E75040",
"z. c #F35C4E",
"x. c #FB5D4C",
"c. c #FD5745",
"v. c #E55F52",
"b. c #DE6355",
"n. c #C96156",
"m. c #FC614F",
"M. c #E16456",
"N. c #FC6B5C",
"B. c #F6695B",
"V. c #E8766A",
"C. c #E77467",
"Z. c #FD7060",
"A. c #FC7A6C",
"S. c #F67466",
"D. c #ED7C70",
"F. c #FC8375",
"G. c #FC897D",
"H. c #F68376",
"J. c #E38277",
"K. c gray54",
"L. c #909191",
"P. c #BF8683",
"I. c #B4928E",
"U. c #A3A3A3",
"Y. c #B4AFAE",
"T. c #BCBDBD",
"R. c #C0908A",
"E. c #CE9D98",
"W. c #FD8D81",
"Q. c #F68D82",
"!. c #FE9185",
"~. c #FD958A",
"^. c #FD998E",
"/. c #FE9E93",
"(. c #E79086",
"). c #FDA59B",
"_. c #FDA89E",
"`. c #F3A69D",
"'. c #FDABA2",
"]. c #FDB5AD",
"[. c #FDBAB3",
"{. c #FDC2BC",
"}. c gray77",
"|. c gray85",
" X c #FEC7C1",
".X c #FECAC5",
"XX c #FECDC8",
"oX c #FDD3CE",
"OX c #FEDBD7",
"+X c #FDE0DC",
"@X c gray92",
"#X c #E6E7E7",
"$X c #FFEFED",
"%X c #FFE6E4",
"&X c #FDF0EE",
"*X c #FEFCFC",
"=X c #FEF4F3",
"-X c None",
/* pixels */
"-X-X-X-X-X-X-X-X-X-X-X-X-X-Xp p p p p p p p p p -X-X-X-X-X-X-X-X-X-X-X-X-X-X-X-X-X-X-X-X-X-X-X-X-X-X",
"-X-X-X-X-X-X-X-X-X-X-Xp p p p N N B B N N N i p p p r -X-X-X-X-X-X-X-X-X-X-X-X-X-X-X-X-X-X-X-X-X-X-X",
"-X-X-X-X-X-X-X-X-Xi N B V D D F F H H F F F D Z V N 9 .   -X-X-X-X-X-X-X-X-X-X-X-X-X-X-X-X-X-X-X-X-X",
"-X-X-X-X-X-X-X% o 4 C F J J E E E W E E E E J J H F u o       -X-X-X-X-X-X-X-X-X-X-X-X-X-X-X-X-X-X-X",
"-X-X-X-X-X-X%     - H E E W W W ~ ~ ~ W K F E E W E F 8 o . O 7 -X-X-X-X-X-X-X-X-X-X-X-X-X-X-X-X-X-X",
"-X-X-X-X-Xi 4 O & m W W ~ ^ / ^ / / ! u = % 8 K ~ W W J V u m B p -X-X-X-X-X-X-X-X-X-X-X-X-X-X-X-X-X",
"-X-X-X-XN C D V D E ~ ^ / / [ ] ] ] C O       8 W / ^ ~ W E J F V N -X-X-X-X-X-X-X-X-X-X-X-X-X-X-X-X",
"-X-X-XN V H E W ~ ^ / / ] ] { { | | G O       % L ] ' / ^ W W E J C N -X-X-X-X-X-X-X-X-X-X-X-X-X-X-X",
"-X-Xp V H E E W ^ / [ ] { |  .......` 9       % I  .] ] / / ~ W E J D B -X-X-X-X-X-X-X-X-X-X-X-X-X-X",
"-X-XN C H J E Q W ( ^ _ _ } } } $.$.*.+.q * * S }  .| | { ' / ^ ~ E J D -X-X-X-X-X-X-X-X-X-X-X-X-X-X",
"-Xr u V C D F K K ( ( ) ) ) O.o.@.,.,.w.8.T >.1.:.*... .| ] ' / ^ W E J C -X-X-X-X-X-X-X-X-X-X-X-X-X",
"-Xi V H E W ^ / [ {  ...&.%.*.;.q.e.k.v.M.j.d.j.l.q.3.-... .{ ] / ^ W E H -X-X-X-X-X-X-X-X-X-X-X-X-X",
"p N F J W ~ / ' { | ....%.*.;.0.e.f.n.C.F.H.H.D.C.M.a.w.;.%. .{ [ / ~ W J y -X-X-X-X-X-X-X-X-X-X-X-X",
"i B F E W ~ / ] {  ...&.*.:.4.>.d s l i.(./.).^.~.G.D.M.8.,.#.{ { / Q H E m . -X-X-X-X-X-X-X-X-X-X-X",
"p M H E W ^ / ] {  ...%.*.:.<.q , 2 j v P.].].].'._.^.G.S.j.,.@.[ ! 7 = y m O X -X-X-X-X-X-X-X-X-X-X",
"p M F E W ~ / ] |  ...*.*.3.U + # 2 j v I.[.{.OXOXXX[._.!.A.z.w.+.i .   : f s L.U.-X-X-X-X-X-X-X-X-X",
"p N F E E ~ / ] |  .&.%.*.3.U + X < k b E.{.{.=X*X=XOX{.'.~.A.x.R >   X n Y.l T.@X-X-X-X-X-X-X-X-X-X",
"p N D J E W / ] { ....%.=.3.1.a * , h p.`.{.{.+X*X*X*X+X{._.G.C.x < X X K.}.< 3 U.U.-X-X-X-X-X-X-X-X",
"p p V e 5 y Q ' {  ...&.*.:.4.1.>.7.s.H.^._.{..X%X*X*X=XoX[./.J.c 2 , @ k b @   @ # -X-X-X-X-X-X-X-X",
"p p w o   . r / ] { ....%.*.3.4.0.t.m.Z.F.!.).].{.+X&X&XoX[._.Q.p.j 2 n U.3         -X-X-X-X-X-X-X-X",
"-Xp 5       = K ] { | ..&.*.=.3.:.0.t.y.Z.F.G./._.].{. X{.].).W.V.u.g U.#Xj     X X   -X-X-X-X-X-X-X",
"-Xp 9 .     % H / ] { | ....*.*.:.:.0.0.t.m.N.F.W.^.)._._.).^.G.A.v.7.P.Y.#   X z k   -X-X-X-X-X-X-X",
"-X-Xi =     - J ^ / ] {  .....-.=.:.:.:.0.0.y.m.N.A.F.G.W.G.F.A.B.k.e.f.x X   @ < #   -X-X-X-X-X-X-X",
"-X-Xp r 5 5 V E ~ ^ ' ] ]  .....%.%.*.=.*.=.:.0.r.c.m.N.N.N.B.B.k.g.6.Y $   # v #     -X-X-X-X-X-X-X",
"-X-X-Xp p B F E E ~ ^ ' ] ] |  .......%.%.O.o.O.-.:.5.t.r.h.h.e.e.6.U > X   X < X     -X-X-X-X-X-X-X",
"-X-X-X-Xp p B F E E ! ^ / ' ] ] |  .....P 6 % ; A } ..%.-.-.2.<.<.U 0 X             -X-X-X-X-X-X-X-X",
"-X-X-X-X-Xp i M D J E E ~ / / ' ] { | _ 5       O Z { { { [ [ ` P 6 : v b <     -X-X-X-X-X-X-X-X-X-X",
"-X-X-X-X-X-Xp p B C J E E ~ ~ / / / [ ( =         7 ) ] ' / ^ D - 1 U.@X@XL.-X-X-X-X-X-X-X-X-X-X-X-X",
"-X-X-X-X-X-X-Xp p p V F J E E W ~ ^ / ~ w .       5 W ^ ~ K y % X n |.|.}.-X-X-X-X-X-X-X-X-X-X-X-X-X",
"-X-X-X-X-X-X-X-X-Xp N N C F J E E E ! ~ H 7 o o & V W K D t o -X-X-X-X-X-X-X-X-X-X-X-X-X-X-X-X-X-X-X",
"-X-X-X-X-X-X-X-X-X-X6 7 t p V D F J J E E H V m V V u 7 -X-X-X-X-X-X-X-X-X-X-X-X-X-X-X-X-X-X-X-X-X-X",
"-X-X-X-X-X-X-X-X-X-X  -XO - -XN V D F H J E D w 8 -X-X-X-X-X-X-X-X-X-X-X-X-X-X-X-X-X-X-X-X-X-X-X-X-X",
"-X-X-X-X-X-X-X-X-X-X-X-X-X-X-X-X-X-X-X-X-X-X-X-X-X-X-X-X-X-X-X-X-X-X-X-X-X-X-X# -X-X-X-X-X-X-X-X-X-X",
"-X-X-X-X-X-X-X-X-X-X-X-X-X-X-X-X-X-X-X-X-X-X-X-X-X-X-X-X-X-X-X-X-X-X-X-X-X-X-X# -X-X-X-X-X-X-X-X-X-X",
"-X-X-X-X-X-X-X-X-X-X-X-X-X-X-X-X-X-X-X-X-X-X-X-X-X-X-X-X-X-X-X-X-X-X-X-X-X-X-X-X-X-X-X-X-X-X-X-X-X-X",
"-X-X-X-X-X-X-X-X-X-X-X-X-X-X-X-X-X-X-X-X-X-X-X-X-X-X-X-X-X-X-X-X-X-X-X-X-X-X-X-X-X-X-X-X-X-X-X-X-X-X",
"-X-X-X-X-X-X-X-X-X-X-X-X-X-X-X-X-X-X-X-X-X-X-X-X-X-X-X-X-X-X-X-X-X-X-X-X-X-X-X-X-X-X-X-X-X-X-X-X-X-X",
"-X-X-X-X-X-X-X-X-X-X-X-X-X-X-X-X-X-X-X-X-X-X-X-X-X-X-X-X-X-X-X-X-X-X-X-X-X-X-X-X-X-X-X-X-X-X-X-X-X-X"
};
