/* XPM */
static char *_576595373733[] = {
/* columns rows colors chars-per-pixel */
"40 40 60 1 ",
"  c #2E5625",
". c #2F5628",
"X c #335E2A",
"o c #365E30",
"O c #336227",
"+ c #36622B",
"@ c #38642D",
"# c #3B6B2E",
"$ c #3E732D",
"% c #376431",
"& c #3C6533",
"* c #3D6A32",
"= c #3F6B38",
"- c #3F7230",
"; c #42742E",
": c #437A2D",
"> c #487C2E",
", c #416C35",
"< c #41673B",
"1 c #436C3B",
"2 c #437434",
"3 c #457A33",
"4 c #497D35",
"5 c #45723B",
"6 c #49753C",
"7 c #477939",
"8 c #4B7C3A",
"9 c #517F3E",
"0 c #456D42",
"q c #477144",
"w c #4B7343",
"e c #4E7D42",
"r c #527D43",
"t c #527448",
"y c #45822D",
"u c #48842F",
"i c #478134",
"p c #4B8334",
"a c #4E8933",
"s c #4D823A",
"d c #518C36",
"f c #51853C",
"g c #548B3C",
"h c #56913C",
"j c #59943F",
"k c #538342",
"l c #588740",
"z c #578A40",
"x c #598D43",
"c c #578748",
"v c #5C804F",
"b c #5C9344",
"n c #629542",
"m c #629C44",
"M c #609748",
"N c #6AA34C",
"B c #72A154",
"V c #82AF59",
"C c #BCE37F",
"Z c None",
/* pixels */
"ZZZZZZZZZZZZZZZZZZZZZZZZZZZZZZZZZZZZZZZZ",
"ZZZZZZZZZZZZZZZZZZZZZZZZZZZZZZZZZZZZZZZZ",
"ZZZZZZZZZZZZZZZZZZZZZZZZZZZZZZZZZZZZZZZZ",
"ZZZZZZZZZZZZZZZZZZZZcZZZZZZZZZZZZZZZZZZZ",
"ZZZZZZZZZZZZZZZZZZZZwZZZZZZZZZZZZZZZZZZZ",
"ZZZZZZZZZZZZZZZZZZZqqZZZZZZZZZZZZZZZZZZZ",
"ZZZZZZZZZZZZZZZZZZZq0ZZZZZZZZZZZZZZZZZZZ",
"ZZZZZZZZZZZZZZZZZZq00wZZZZZZZZZZZZZZZZZZ",
"ZZZZZZZZZZZZZZZZZZ01<wZZZZZZZZZZZZZZZZZZ",
"ZZZZZZZZZZZZZZZZZe11<5rZZZZZZZZZZZZZZZZZ",
"ZZZZZZZZZZZZZZZZZ811527ZZZZZZZZZZZZZZZZZ",
"ZZZZZZwZZZZZZZZZZ855,-7ZZZZZZZZZZZZZZZZZ",
"ZZZZZZ1<wZZZZZZZZs77$$7ZZZZZZZZZZZZZZZZZ",
"ZZZZZZ5&&1ZZZZZZZ877:$3ZZZZZZZZZZZZZZZZZ",
"ZZZZZZ8=**5ZZZZZ823:$$2ZZZZZZZZZZZZZZZZZ",
"ZZZZZZZ2###*ZZZZ733;:37ZZZZZZZZZZZZtrZZZ",
"ZZZZZZZ3$##*&ZZZ43-;337ZZZZZZZZvtwwtrZZZ",
"ZZZZZZZ>:$##&&ZZ3323722ZZZZZZk6w6wt6ZZZZ",
"ZZZZZZZi:$$*,*,Z*272725ZZZZZk6w6578rZZZZ",
"ZZZZZZZZ>3$2<,&,*26725,ZZZfrkek8788ZZZZZ",
"ZZZZZZZZi>3-21,@@,666<*ZZkkkcks84sZZZZZZ",
"ZZZZZZZZZ>:$25<X%,6w1&+ZZ8kcks4448ZZZZZZ",
"ZZZZZZZZZ333381<%&16<o ,sekl44744ZZZZZZZ",
"ZZZZZZZZZZ;:242,&%<5&.+ekkf84844ZZZZZZZZ",
"ZZbkfeZZZZZ32221%X&<XX58ff4s44ZZZZZZZZZZ",
"ZZZg4323-#@+#*,2=+&,+&8sss8siZZZZZZZZZZZ",
"ZZZZay$3--#OOO*,*+&,+2fspisZZZZZZZZZZZZZ",
"ZZZZZauy:::;#XX+,,*22sffsZZZZZZZZZZZZZZZ",
"ZZZZZZaau::;;,,@&2299gffZZZZZZZZZZZZZZZZ",
"ZZZZZZZZpu::;;;;#29fggs4ssssssssfZZZZZZZ",
"ZZZZZZZZZZu>>;>;24fnnfi4issdffgggggbZZZZ",
"ZZZZZZZZZZZZZZZ444;>si744isgggghhjbbZZZZ",
"ZZZZZZZZZZZZZZaas:;44;;44sfggjhjjbZZZZZZ",
"ZZZZZZZZZZZZZaahi3ZVgsuZZZZZZZZZZZZZZZZZ",
"ZZZZZZZZZZZZZadhZZZCBxjgZZZZZZZZZZZZZZZZ",
"ZZZZZZZZZZZZZhZZZZZZZZMnZZZZZZZZZZZZZZZZ",
"ZZZZZZZZZZZZZZZZZZZZZZZmmZZZZZZZZZZZZZZZ",
"ZZZZZZZZZZZZZZZZZZZZZZZZNZZZZZZZZZZZZZZZ",
"ZZZZZZZZZZZZZZZZZZZZZZZZZZZZZZZZZZZZZZZZ",
"ZZZZZZZZZZZZZZZZZZZZZZZZZZZZZZZZZZZZZZZZ"
};
